{
  "accessors": [
    {
      "bufferView": 2,
      "componentType": 5126,
      "count": 2023,
      "max": [
        2.7108240127563477,
        1.405045986175537,
        2.121170997619629
      ],
      "min": [
        -2.7108240127563477,
        -4.856551170349121,
        0.11715500056743622
      ],
      "type": "VEC3"
    },
    {
      "bufferView": 2,
      "byteOffset": 24276,
      "componentType": 5126,
      "count": 2023,
      "max": [
        1.0,
        1.0,
        1.0
      ],
      "min": [
        -1.0,
        -1.0,
        -1.0
      ],
      "type": "VEC3"
    },
    {
      "bufferView": 3,
      "componentType": 5126,
      "count": 2023,
      "max": [
        1.0,
        1.0,
        1.0,
        1.0
      ],
      "min": [
        -1.0,
        -1.0,
        -1.0,
        -1.0
      ],
      "type": "VEC4"
    },
    {
      "bufferView": 1,
      "componentType": 5126,
      "count": 2023,
      "max": [
        0.9152500033378601,
        1.0939420461654663
      ],
      "min": [
        -0.7054550051689148,
        -1.4000000192027073e-05
      ],
      "type": "VEC2"
    },
    {
      "bufferView": 0,
      "componentType": 5125,
      "count": 3291,
      "type": "SCALAR"
    },
    {
      "bufferView": 2,
      "byteOffset": 48552,
      "componentType": 5126,
      "count": 15350,
      "max": [
        3.0080950260162354,
        4.362802982330322,
        3.387744903564453
      ],
      "min": [
        -3.008094072341919,
        -5.127615928649902,
        0.004648000001907349
      ],
      "type": "VEC3"
    },
    {
      "bufferView": 2,
      "byteOffset": 232752,
      "componentType": 5126,
      "count": 15350,
      "max": [
        1.0,
        1.0,
        1.0
      ],
      "min": [
        -1.0,
        -1.0,
        -1.0
      ],
      "type": "VEC3"
    },
    {
      "bufferView": 3,
      "byteOffset": 32368,
      "componentType": 5126,
      "count": 15350,
      "max": [
        1.0,
        1.0,
        1.0,
        1.0
      ],
      "min": [
        -1.0,
        -1.0,
        -1.0,
        -1.0
      ],
      "type": "VEC4"
    },
    {
      "bufferView": 1,
      "byteOffset": 16184,
      "componentType": 5126,
      "count": 15350,
      "max": [
        0.9939590096473694,
        1.1744309663772583
      ],
      "min": [
        0.0014890000456944108,
        0.0013689999468624592
      ],
      "type": "VEC2"
    },
    {
      "bufferView": 0,
      "byteOffset": 13164,
      "componentType": 5125,
      "count": 39180,
      "type": "SCALAR"
    },
    {
      "bufferView": 2,
      "byteOffset": 416952,
      "componentType": 5126,
      "count": 22,
      "max": [
        0.4376490116119385,
        -0.29592299461364746,
        3.0676538944244385
      ],
      "min": [
        -0.4376490116119385,
        -5.084081172943115,
        0.27375900745391846
      ],
      "type": "VEC3"
    },
    {
      "bufferView": 1,
      "byteOffset": 138984,
      "componentType": 5126,
      "count": 22,
      "max": [
        0.0,
        0.0
      ],
      "min": [
        0.0,
        0.0
      ],
      "type": "VEC2"
    },
    {
      "bufferView": 0,
      "byteOffset": 169884,
      "componentType": 5125,
      "count": 34,
      "type": "SCALAR"
    },
    {
      "bufferView": 2,
      "byteOffset": 417216,
      "componentType": 5126,
      "count": 169,
      "max": [
        0.3806779980659485,
        -4.111764907836914,
        1.7657849788665771
      ],
      "min": [
        -0.3806779980659485,
        -4.981653213500977,
        1.267179012298584
      ],
      "type": "VEC3"
    },
    {
      "bufferView": 2,
      "byteOffset": 419244,
      "componentType": 5126,
      "count": 169,
      "max": [
        0.9818393588066101,
        0.9608260989189148,
        0.929753839969635
      ],
      "min": [
        -0.9818393588066101,
        -0.731905996799469,
        -0.9076351523399353
      ],
      "type": "VEC3"
    },
    {
      "bufferView": 1,
      "byteOffset": 139160,
      "componentType": 5126,
      "count": 169,
      "max": [
        0.8674200177192688,
        0.9047939777374268
      ],
      "min": [
        0.000838999985717237,
        0.4763450026512146
      ],
      "type": "VEC2"
    },
    {
      "bufferView": 0,
      "byteOffset": 170020,
      "componentType": 5125,
      "count": 444,
      "type": "SCALAR"
    }
  ],
  "asset": {
    "extras": {
      "author": "Thomas Andris (https://sketchfab.com/thomas005)",
      "license": "CC-BY-4.0 (http://creativecommons.org/licenses/by/4.0/)",
      "source": "https://sketchfab.com/3d-models/spaceship-f0bd3aa9c49c434f988ef8a75c225170",
      "title": "Spaceship"
    },
    "generator": "Sketchfab-12.63.0",
    "version": "2.0"
  },
  "bufferViews": [
    {
      "buffer": 0,
      "byteLength": 171796,
      "name": "floatBufferViews",
      "target": 34963
    },
    {
      "buffer": 0,
      "byteLength": 140512,
      "byteOffset": 171796,
      "byteStride": 8,
      "name": "floatBufferViews",
      "target": 34962
    },
    {
      "buffer": 0,
      "byteLength": 421272,
      "byteOffset": 312308,
      "byteStride": 12,
      "name": "floatBufferViews",
      "target": 34962
    },
    {
      "buffer": 0,
      "byteLength": 277968,
      "byteOffset": 733580,
      "byteStride": 16,
      "name": "floatBufferViews",
      "target": 34962
    }
  ],
  "buffers": [
    {
      "byteLength": 1011548,
      "uri": "scene.bin"
    }
  ],
  "images": [
    {
      "uri": "textures/UV_test_baseColor.png"
    },
    {
      "uri": "textures/UV_test_metallicRoughness.png"
    },
    {
      "uri": "textures/UV_test_emissive.png"
    },
    {
      "uri": "textures/UV_test_normal.png"
    },
    {
      "uri": "textures/Verre_baseColor.png"
    }
  ],
  "materials": [
    {
      "doubleSided": true,
      "emissiveFactor": [
        1.0,
        1.0,
        1.0
      ],
      "emissiveTexture": {
        "index": 2
      },
      "name": "UV_test",
      "normalTexture": {
        "index": 3
      },
      "occlusionTexture": {
        "index": 1
      },
      "pbrMetallicRoughness": {
        "baseColorTexture": {
          "index": 0
        },
        "metallicRoughnessTexture": {
          "index": 1
        }
      }
    },
    {
      "alphaMode": "BLEND",
      "doubleSided": true,
      "name": "Verre",
      "pbrMetallicRoughness": {
        "baseColorFactor": [
          0.0,
          0.0,
          0.0,
          0.6271488022
        ],
        "baseColorTexture": {
          "index": 4
        },
        "metallicFactor": 0.0,
        "roughnessFactor": 0.0
      }
    }
  ],
  "meshes": [
    {
      "name": "Object_0",
      "primitives": [
        {
          "attributes": {
            "NORMAL": 1,
            "POSITION": 0,
            "TANGENT": 2,
            "TEXCOORD_0": 3
          },
          "indices": 4,
          "material": 0,
          "mode": 4
        }
      ]
    },
    {
      "name": "Object_1",
      "primitives": [
        {
          "attributes": {
            "NORMAL": 6,
            "POSITION": 5,
            "TANGENT": 7,
            "TEXCOORD_0": 8
          },
          "indices": 9,
          "material": 0,
          "mode": 4
        }
      ]
    },
    {
      "name": "Object_2",
      "primitives": [
        {
          "attributes": {
            "POSITION": 10,
            "TEXCOORD_0": 11
          },
          "indices": 12,
          "material": 1,
          "mode": 1
        }
      ]
    },
    {
      "name": "Object_3",
      "primitives": [
        {
          "attributes": {
            "NORMAL": 14,
            "POSITION": 13,
            "TEXCOORD_0": 15
          },
          "indices": 16,
          "material": 1,
          "mode": 4
        }
      ]
    }
  ],
  "nodes": [
    {
      "children": [
        1
      ],
      "matrix": [
        1.0,
        0.0,
        0.0,
        0.0,
        0.0,
        2.220446049250313e-16,
        -1.0,
        0.0,
        0.0,
        1.0,
        2.220446049250313e-16,
        0.0,
        0.0,
        0.0,
        0.0,
        1.0
      ],
      "name": "Sketchfab_model"
    },
    {
      "children": [
        2,
        3,
        4,
        5
      ],
      "name": "B2_C1_CG_vaisseau_025.obj.cleaner.materialmerger.gles"
    },
    {
      "mesh": 0,
      "name": "Object_2"
    },
    {
      "mesh": 1,
      "name": "Object_3"
    },
    {
      "mesh": 2,
      "name": "Object_4"
    },
    {
      "mesh": 3,
      "name": "Object_5"
    }
  ],
  "samplers": [
    {
      "magFilter": 9729,
      "minFilter": 9987,
      "wrapS": 10497,
      "wrapT": 10497
    }
  ],
  "scene": 0,
  "scenes": [
    {
      "name": "Sketchfab_Scene",
      "nodes": [
        0
      ]
    }
  ],
  "textures": [
    {
      "sampler": 0,
      "source": 0
    },
    {
      "sampler": 0,
      "source": 1
    },
    {
      "sampler": 0,
      "source": 2
    },
    {
      "sampler": 0,
      "source": 3
    },
    {
      "sampler": 0,
      "source": 4
    }
  ]
}
