{
  "accessors": [
    {
      "bufferView": 2,
      "componentType": 5126,
      "count": 11437,
      "max": [
        35.20979690551758,
        57.82585144042969,
        3.1911792755126953
      ],
      "min": [
        -36.090816497802734,
        -34.5048828125,
        -5.410406112670898
      ],
      "type": "VEC3"
    },
    {
      "bufferView": 2,
      "byteOffset": 137244,
      "componentType": 5126,
      "count": 11437,
      "max": [
        0.9999985098838806,
        1.0,
        0.9999999403953552
      ],
      "min": [
        -0.9999985098838806,
        -1.0,
        -0.9999999403953552
      ],
      "type": "VEC3"
    },
    {
      "bufferView": 3,
      "componentType": 5126,
      "count": 11437,
      "max": [
        0.9998634457588196,
        1.0,
        1.0,
        1.0
      ],
      "min": [
        -0.9998634457588196,
        -0.9999998211860657,
        -1.0,
        -1.0
      ],
      "type": "VEC4"
    },
    {
      "bufferView": 1,
      "componentType": 5126,
      "count": 11437,
      "max": [
        0.9947692155838013,
        0.9769412279129028
      ],
      "min": [
        0.010372694581747055,
        0.01651858165860176
      ],
      "type": "VEC2"
    },
    {
      "bufferView": 0,
      "componentType": 5125,
      "count": 35076,
      "type": "SCALAR"
    },
    {
      "bufferView": 2,
      "byteOffset": 274488,
      "componentType": 5126,
      "count": 2018,
      "max": [
        22.878873825073242,
        -2.344143867492676,
        -30.7170467376709
      ],
      "min": [
        4.425711631774902,
        -10.023603439331055,
        -33.352264404296875
      ],
      "type": "VEC3"
    },
    {
      "bufferView": 2,
      "byteOffset": 298704,
      "componentType": 5126,
      "count": 2018,
      "max": [
        1.0,
        1.0,
        1.0
      ],
      "min": [
        -1.0,
        -1.0,
        -1.0
      ],
      "type": "VEC3"
    },
    {
      "bufferView": 3,
      "byteOffset": 182992,
      "componentType": 5126,
      "count": 2018,
      "max": [
        1.0,
        1.0,
        1.0,
        1.0
      ],
      "min": [
        -1.0,
        -1.0,
        -1.0,
        -1.0
      ],
      "type": "VEC4"
    },
    {
      "bufferView": 1,
      "byteOffset": 91496,
      "componentType": 5126,
      "count": 2018,
      "max": [
        0.9886347055435181,
        0.9753727316856384
      ],
      "min": [
        0.024829372763633728,
        0.016147708520293236
      ],
      "type": "VEC2"
    },
    {
      "bufferView": 0,
      "byteOffset": 140304,
      "componentType": 5125,
      "count": 3696,
      "type": "SCALAR"
    }
  ],
  "asset": {
    "extras": {
      "author": "Sefkan Kusu (https://sketchfab.com/SKConcepts)",
      "license": "CC-BY-NC-4.0 (http://creativecommons.org/licenses/by-nc/4.0/)",
      "source": "https://sketchfab.com/3d-models/spaceship-evil-gravity-81df395b295643ea85c13b4d085a7dd7",
      "title": "Spaceship - Evil (Gravity)"
    },
    "generator": "Sketchfab-12.68.0",
    "version": "2.0"
  },
  "bufferViews": [
    {
      "buffer": 0,
      "byteLength": 155088,
      "name": "floatBufferViews",
      "target": 34963
    },
    {
      "buffer": 0,
      "byteLength": 107640,
      "byteOffset": 155088,
      "byteStride": 8,
      "name": "floatBufferViews",
      "target": 34962
    },
    {
      "buffer": 0,
      "byteLength": 322920,
      "byteOffset": 262728,
      "byteStride": 12,
      "name": "floatBufferViews",
      "target": 34962
    },
    {
      "buffer": 0,
      "byteLength": 215280,
      "byteOffset": 585648,
      "byteStride": 16,
      "name": "floatBufferViews",
      "target": 34962
    }
  ],
  "buffers": [
    {
      "byteLength": 800928,
      "uri": "scene.bin"
    }
  ],
  "images": [
    {
      "uri": "textures/ship_baseColor.png"
    },
    {
      "uri": "textures/ship_metallicRoughness.png"
    },
    {
      "uri": "textures/ship_emissive.png"
    },
    {
      "uri": "textures/ship_normal.png"
    },
    {
      "uri": "textures/Engine_baseColor.png"
    },
    {
      "uri": "textures/Engine_metallicRoughness.png"
    },
    {
      "uri": "textures/Engine_emissive.png"
    },
    {
      "uri": "textures/Engine_normal.png"
    }
  ],
  "materials": [
    {
      "doubleSided": true,
      "emissiveFactor": [
        1.0,
        1.0,
        1.0
      ],
      "emissiveTexture": {
        "index": 2
      },
      "name": "ship",
      "normalTexture": {
        "index": 3
      },
      "occlusionTexture": {
        "index": 1
      },
      "pbrMetallicRoughness": {
        "baseColorTexture": {
          "index": 0
        },
        "metallicRoughnessTexture": {
          "index": 1
        },
        "roughnessFactor": 0.0
      }
    },
    {
      "doubleSided": true,
      "emissiveFactor": [
        1.0,
        1.0,
        1.0
      ],
      "emissiveTexture": {
        "index": 6
      },
      "name": "Engine",
      "normalTexture": {
        "index": 7
      },
      "occlusionTexture": {
        "index": 5
      },
      "pbrMetallicRoughness": {
        "baseColorTexture": {
          "index": 4
        },
        "metallicRoughnessTexture": {
          "index": 5
        },
        "roughnessFactor": 0.0
      }
    }
  ],
  "meshes": [
    {
      "name": "1_ship_0",
      "primitives": [
        {
          "attributes": {
            "NORMAL": 1,
            "POSITION": 0,
            "TANGENT": 2,
            "TEXCOORD_0": 3
          },
          "indices": 4,
          "material": 0,
          "mode": 4
        }
      ]
    },
    {
      "name": "2_Engine_0",
      "primitives": [
        {
          "attributes": {
            "NORMAL": 6,
            "POSITION": 5,
            "TANGENT": 7,
            "TEXCOORD_0": 8
          },
          "indices": 9,
          "material": 1,
          "mode": 4
        }
      ]
    }
  ],
  "nodes": [
    {
      "children": [
        1
      ],
      "matrix": [
        17.097915649414063,
        0.0,
        0.0,
        0.0,
        0.0,
        3.796499925415656e-15,
        -17.097915649414063,
        0.0,
        0.0,
        17.097915649414063,
        3.796499925415656e-15,
        0.0,
        0.0,
        0.0,
        0.0,
        1.0
      ],
      "name": "Sketchfab_model"
    },
    {
      "children": [
        2
      ],
      "matrix": [
        1.0,
        0.0,
        0.0,
        0.0,
        0.0,
        0.0,
        1.0,
        0.0,
        0.0,
        -1.0,
        0.0,
        0.0,
        0.0,
        0.0,
        0.0,
        1.0
      ],
      "name": "72d9965ffc3240a09791c42695720877.fbx"
    },
    {
      "children": [
        3,
        6
      ],
      "name": "RootNode"
    },
    {
      "children": [
        4
      ],
      "matrix": [
        1.0,
        0.0,
        0.0,
        0.0,
        0.0,
        2.220446049250313e-16,
        -1.0,
        0.0,
        0.0,
        1.0,
        2.220446049250313e-16,
        0.0,
        0.0,
        0.0,
        0.0,
        1.0
      ],
      "name": "1"
    },
    {
      "children": [
        5
      ],
      "matrix": [
        1.0,
        0.0,
        -0.0,
        0.0,
        0.0,
        1.0,
        0.0,
        0.0,
        0.0,
        0.0,
        1.0,
        0.0,
        0.4405097961425781,
        -11.660484313964844,
        1.1096134185791016,
        1.0
      ],
      "name": "Object_4"
    },
    {
      "mesh": 0,
      "name": "1_ship_0"
    },
    {
      "children": [
        7
      ],
      "matrix": [
        1.0,
        0.0,
        0.0,
        0.0,
        0.0,
        0.9999999999999867,
        1.6292068494294582e-07,
        0.0,
        0.0,
        -1.6292068494294582e-07,
        0.9999999999999867,
        0.0,
        -7.478000164031982,
        0.0,
        -32.0346565246582,
        1.0
      ],
      "name": "2"
    },
    {
      "children": [
        8
      ],
      "matrix": [
        1.0,
        0.0,
        -0.0,
        0.0,
        0.0,
        1.0,
        0.0,
        0.0,
        0.0,
        0.0,
        1.0,
        0.0,
        -6.174045562744141,
        6.183873653411865,
        32.0346565246582,
        1.0
      ],
      "name": "Object_7"
    },
    {
      "mesh": 1,
      "name": "2_Engine_0"
    }
  ],
  "samplers": [
    {
      "magFilter": 9729,
      "minFilter": 9987,
      "wrapS": 10497,
      "wrapT": 10497
    }
  ],
  "scene": 0,
  "scenes": [
    {
      "name": "Sketchfab_Scene",
      "nodes": [
        0
      ]
    }
  ],
  "textures": [
    {
      "sampler": 0,
      "source": 0
    },
    {
      "sampler": 0,
      "source": 1
    },
    {
      "sampler": 0,
      "source": 2
    },
    {
      "sampler": 0,
      "source": 3
    },
    {
      "sampler": 0,
      "source": 4
    },
    {
      "sampler": 0,
      "source": 5
    },
    {
      "sampler": 0,
      "source": 6
    },
    {
      "sampler": 0,
      "source": 7
    }
  ]
}
